<svg width="122" height="79" viewBox="0 0 122 79" fill="none" xmlns="http://www.w3.org/2000/svg">
<path d="M108.101 29L39.1837 47.6878C33.4687 49.2276 28.6682 50 24.7863 50C20.3901 50 17.199 49.0201 15.2207 47.0579C13.9765 45.798 13.6114 44.2007 14.1217 42.2634C14.632 40.3262 15.99 38.2639 18.1881 36.0692C20.0212 34.2944 23.0239 31.9621 27.2042 29.07C25.7863 30.4915 24.7465 32.0523 24.1269 33.6894C23.0278 36.6766 24.017 38.8688 27.0943 40.2687C28.5583 40.9211 30.5719 41.2485 33.139 41.2485C35.1879 41.2485 37.4959 41.0386 40.0629 40.6186L108.101 29Z" fill="black"/>
</svg>
